<svg version="1.1" id="Layer_1" xmlns="http://www.w3.org/2000/svg" xmlns:xlink="http://www.w3.org/1999/xlink" x="0px" y="0px"
	 width="100%" viewBox="0 0 500 500" enable-background="new 0 0 500 500" xml:space="preserve">
<path fill="#343A40" opacity="1.000000" stroke="none" 
	d="
M264.000000,501.000000 
	C176.000015,501.000000 88.500038,501.000000 1.000047,501.000000 
	C1.000031,334.333405 1.000031,167.666794 1.000016,1.000136 
	C167.666565,1.000091 334.333130,1.000091 500.999756,1.000046 
	C500.999847,167.666519 500.999847,334.333038 500.999939,500.999786 
	C422.166656,501.000000 343.333344,501.000000 264.000000,501.000000 
M420.012238,165.012543 
	C420.012238,165.012543 420.049866,165.087021 420.567230,164.949142 
	C420.739899,164.651077 420.912567,164.353027 421.009888,164.010284 
	C421.009888,164.010284 421.054169,164.085846 421.569397,163.947037 
	C421.741516,163.649597 421.913635,163.352142 422.001221,163.000000 
	C422.001221,163.000000 422.087341,163.055069 422.689270,162.844177 
	C422.825531,162.230972 422.961792,161.617783 423.016022,161.010834 
	C423.016022,161.010834 423.027466,161.092270 423.554016,160.954834 
	C423.731293,160.653107 423.908569,160.351379 424.007538,160.004776 
	C424.007538,160.004776 424.063599,160.075455 424.787750,159.765732 
	C425.288483,158.692001 425.789215,157.618271 426.545105,155.997375 
	C417.418152,155.997375 409.120544,155.989761 400.822968,155.998657 
	C357.216187,156.045410 313.609436,156.096344 269.149719,155.983582 
	C266.407776,156.637970 263.665863,157.292358 260.993439,157.990662 
	C260.993439,157.990662 260.955261,157.917847 260.419586,158.032257 
	C260.252350,158.339935 260.085144,158.647629 259.988953,158.988983 
	C259.988953,158.988983 259.955261,158.917953 259.419678,159.032394 
	C259.252441,159.340012 259.085236,159.647614 258.988983,159.988953 
	C258.988983,159.988953 258.955475,159.917877 258.419800,160.032394 
	C258.252502,160.340042 258.085205,160.647690 257.989166,160.989243 
	C257.989166,160.989243 257.954468,160.918381 257.416626,161.034439 
	C257.249695,161.344238 257.082794,161.654022 256.985992,161.986038 
	C256.985992,161.986038 256.963715,161.915924 256.422302,162.030853 
	C256.253510,162.341736 256.084717,162.652634 255.986008,162.985977 
	C255.986008,162.985977 255.963745,162.915833 255.425171,163.028656 
	C255.256317,163.336990 255.087463,163.645309 254.989532,163.989395 
	C254.989532,163.989395 254.954651,163.918015 254.419128,164.031998 
	C254.252121,164.339554 254.085114,164.647110 253.996567,164.996201 
	C253.996567,164.996201 253.933746,164.933426 253.294174,165.124527 
	C251.171585,167.398331 249.048981,169.672134 246.992416,171.989578 
	C246.992416,171.989578 246.963440,171.915924 246.420914,172.032562 
	C246.252396,172.344742 246.083862,172.656921 245.985413,172.985428 
	C245.985413,172.985428 245.969086,172.915359 245.426208,173.029602 
	C245.256393,173.340775 245.086578,173.651947 244.990372,173.992981 
	C244.990372,173.992981 244.945419,173.927505 244.301605,174.119843 
	C241.846008,176.724014 239.390411,179.328186 236.996567,181.997559 
	C236.996567,181.997559 236.953629,181.918762 236.416138,182.034012 
	C236.249527,182.343521 236.082932,182.653015 235.986435,182.986496 
	C235.986435,182.986496 235.962296,182.916428 235.421753,183.031021 
	C235.253311,183.341400 235.084885,183.651779 234.986511,183.986420 
	C234.986511,183.986420 234.962601,183.916260 234.424698,184.029007 
	C234.256073,184.336960 234.087433,184.644913 233.997864,184.996567 
	C233.997864,184.996567 233.932083,184.934586 233.291107,185.126816 
	C230.837006,187.732071 228.382904,190.337341 225.993866,192.991455 
	C225.993866,192.991455 225.961594,192.916763 225.420090,193.031708 
	C225.252060,193.343063 225.084015,193.654419 224.988113,193.991119 
	C224.988113,193.991119 224.950562,193.924500 224.303940,194.117065 
	C220.842697,197.732010 217.381439,201.346954 213.989105,204.989273 
	C213.989105,204.989273 213.961044,204.920624 213.313400,205.115448 
	C210.182312,208.397552 207.051224,211.679642 203.989212,214.989548 
	C203.989212,214.989548 203.960175,214.920990 203.304016,215.122177 
	C200.610489,218.071198 197.916977,221.020233 195.056808,224.461365 
	C195.036530,224.633331 195.016266,224.805313 194.479874,225.025177 
	C194.313614,225.072327 194.147369,225.119461 193.139832,225.394531 
	C193.139832,238.822281 193.139832,252.250031 193.139832,265.675659 
	C181.702362,265.675659 170.893723,265.675659 159.999176,265.675659 
	C159.999176,228.393890 159.999313,191.430771 159.999115,154.467636 
	C159.998856,107.012985 160.001465,59.558338 159.993546,12.103689 
	C159.992645,6.639856 159.965164,6.639861 155.198120,9.120059 
	C154.793549,9.666928 154.388977,10.213798 153.284546,10.987054 
	C152.916092,11.667272 152.547638,12.347489 151.818146,13.628102 
	C142.303391,21.464811 132.788651,29.301521 122.552986,37.010448 
	C121.680687,37.650909 120.808380,38.291374 119.996536,38.996777 
	C119.996536,38.996777 119.956886,38.917431 119.420639,39.036343 
	C119.252289,39.345013 119.083931,39.653687 118.985977,39.986084 
	C118.985977,39.986084 118.961990,39.915771 118.421906,40.037212 
	C118.252792,40.348614 118.083679,40.660015 117.985245,40.985710 
	C117.985245,40.985710 117.965347,40.916397 117.273521,40.965305 
	C115.824593,42.291363 114.375656,43.617416 112.992882,44.990314 
	C112.992882,44.990314 112.961464,44.915581 112.419716,45.034046 
	C112.251312,45.346203 112.082909,45.658356 111.985168,45.984600 
	C111.985168,45.984600 111.968575,45.914482 111.287003,45.967369 
	C110.168266,46.956963 109.049530,47.946556 107.995377,48.994583 
	C107.995377,48.994583 107.956116,48.916843 107.417160,49.034641 
	C107.249695,49.345272 107.082230,49.655907 106.987350,49.990082 
	C106.987350,49.990082 106.950470,49.923275 106.403442,50.061111 
	C106.320381,50.387489 106.237320,50.713867 105.790840,51.631054 
	C99.833778,56.766277 93.876724,61.901501 87.253975,67.102982 
	C86.350655,67.744469 85.447342,68.385963 84.479111,69.049011 
	C84.479111,69.049011 84.505875,69.111954 83.537758,69.074142 
	C83.357269,70.192802 83.019234,71.311401 83.018814,72.430130 
	C82.993774,138.352875 82.990639,204.275635 83.038445,270.198364 
	C83.039429,271.553406 83.662956,272.908020 84.200813,274.873688 
	C87.635857,278.593536 90.930977,282.455200 94.531944,286.006836 
	C105.693939,297.015747 116.963593,307.915710 128.212784,318.835968 
	C130.401688,320.960846 132.686600,322.986847 134.998779,325.000000 
	C134.998779,325.000000 134.929443,325.059204 134.997726,325.610199 
	C135.312302,325.763855 135.626892,325.917480 135.998779,326.000000 
	C135.998779,326.000000 135.939209,326.070953 136.085037,326.725983 
	C138.365387,328.836914 140.645737,330.947845 142.991348,333.007507 
	C142.991348,333.007507 142.941589,333.073914 143.101013,333.749573 
	C144.038406,334.844849 144.816254,336.154816 145.944489,336.993286 
	C148.807922,339.121277 151.828400,341.037964 155.244781,343.767609 
	C165.430756,343.511292 175.615723,343.199097 185.803055,343.019592 
	C191.947495,342.911285 192.876038,344.068329 193.023895,350.511200 
	C193.096786,353.687622 193.567749,356.854950 193.985458,360.892670 
	C193.657715,368.802460 193.072098,376.712372 193.074707,384.622040 
	C193.077332,392.543884 193.992599,400.467804 193.936874,408.386780 
	C193.789734,429.305084 193.296906,450.220734 193.022003,471.138519 
	C192.939316,477.431122 193.120361,483.727234 193.253860,490.737457 
	C196.377426,492.382751 200.073074,490.419312 202.008987,486.010010 
	C202.008987,486.010010 202.042023,486.082184 202.740173,486.037842 
	C204.517944,484.377289 206.295715,482.716736 208.002991,481.006805 
	C208.002991,481.006805 208.050491,481.078613 208.747498,481.038208 
	C210.523407,479.376495 212.299301,477.714752 214.009476,476.013580 
	C214.009476,476.013580 214.030197,476.087372 214.591125,475.955963 
	C214.782516,475.634003 214.973907,475.312012 215.788788,474.775513 
	C219.209534,471.536102 222.630264,468.296661 226.769028,465.019043 
	C228.204514,464.029572 229.639984,463.040131 231.006622,462.010315 
	C231.006622,462.010315 231.041840,462.081940 231.739563,462.032410 
	C233.516190,460.375885 235.292831,458.719360 236.998688,457.003265 
	C236.998688,457.003265 237.061020,457.072357 237.777939,457.038971 
	C241.543488,453.710632 245.309036,450.382324 249.004166,447.007690 
	C249.004166,447.007690 249.049133,447.079010 249.776352,447.038452 
	C251.629578,445.327820 253.482819,443.617188 255.877335,441.704620 
	C256.302582,441.086792 256.727844,440.468933 257.578552,439.646423 
	C257.972046,439.172699 258.365540,438.698944 259.443787,437.962921 
	C262.929108,435.083069 266.414429,432.203247 270.652374,428.900391 
	C270.432312,426.873993 270.024292,424.847961 270.020752,422.821167 
	C269.977081,397.928650 269.972839,373.035980 270.035583,348.143555 
	C270.039948,346.418182 270.656647,344.694427 271.874695,343.030121 
	C274.242218,343.024445 276.609741,343.018768 279.655853,342.845032 
	C279.790253,342.256470 279.924622,341.667908 280.039368,341.031708 
	C280.039368,341.031708 280.089874,341.041870 280.759857,341.275879 
	C280.853638,340.890076 280.947418,340.504272 281.089691,340.102051 
	C281.089691,340.102051 281.114441,340.057220 281.793121,340.412720 
	C283.537109,337.931793 285.281067,335.450897 287.784119,333.006561 
	C289.877075,330.689545 291.970032,328.372528 294.571442,325.945953 
	C294.739380,325.656525 294.907318,325.367096 295.704193,324.847137 
	C296.490845,323.584076 297.277527,322.320984 298.571106,320.946930 
	C298.741425,320.659149 298.911743,320.371368 299.713806,319.840881 
	C300.874420,318.661652 302.226044,317.615387 303.157928,316.276917 
	C305.486053,312.933014 307.623657,309.456451 310.076202,305.443176 
	C310.734100,304.626190 311.392029,303.809174 312.698120,302.779022 
	C320.132874,293.879608 327.567596,284.980164 335.513580,275.906708 
	C335.704407,275.611786 335.895203,275.316895 336.015533,275.011871 
	C336.015533,275.011871 336.034790,275.080475 336.577118,274.984589 
	C336.744720,274.676544 336.912292,274.368500 336.998779,274.004242 
	C336.998779,274.004242 337.076965,274.066833 337.739197,273.872406 
	C339.563324,271.472107 341.387421,269.071808 343.791565,265.908264 
	C318.282593,265.908264 294.200165,265.908264 270.326111,265.175385 
	C270.254486,254.448425 270.182892,243.721466 270.948517,232.914520 
	C272.856476,232.592041 274.763977,231.991730 276.672424,231.988846 
	C304.660065,231.946564 332.647888,231.999969 360.635529,231.955017 
	C362.041718,231.952774 363.446838,231.262955 365.211029,230.314560 
	C374.126251,219.628296 383.041473,208.942047 392.535004,197.991592 
	C392.992706,197.336060 393.450409,196.680527 394.061523,195.577301 
	C394.061523,195.577301 394.173615,195.117508 394.701843,194.859543 
	C395.159149,194.243912 395.616425,193.628281 396.005402,193.002899 
	C396.005402,193.002899 396.003754,193.071869 396.524811,192.822540 
	C396.947418,192.227112 397.370056,191.631683 398.108795,190.419540 
	C404.371277,183.069077 410.633789,175.718613 417.412140,168.035919 
	C417.630646,167.713272 417.849152,167.390625 418.004425,167.011414 
	C418.004425,167.011414 418.032867,167.091354 418.558350,166.952499 
	C418.734680,166.650467 418.911011,166.348450 419.015015,166.015778 
	C419.015015,166.015778 419.043243,166.089111 419.563873,165.950546 
	C419.737976,165.650772 419.912079,165.350998 420.012238,165.012543 
z"/>
<path fill="#DE5E30" opacity="1.000000" stroke="none" 
	d="
M269.899750,429.323425 
	C266.414429,432.203247 262.929108,435.083069 258.929504,438.247620 
	C257.994507,438.971924 257.573792,439.411499 257.153107,439.851105 
	C256.727844,440.468933 256.302582,441.086792 255.222198,441.748962 
	C252.727737,443.555237 250.888443,445.317139 249.049133,447.079010 
	C249.049133,447.079010 249.004166,447.007690 248.711029,446.841858 
	C244.632263,450.141449 240.846634,453.606903 237.061020,457.072357 
	C237.061020,457.072357 236.998688,457.003265 236.718842,456.805817 
	C234.639954,458.432892 232.840897,460.257416 231.041840,462.081940 
	C231.041840,462.081940 231.006622,462.010315 230.715698,461.854584 
	C228.966858,462.818298 227.508926,463.937775 226.050995,465.057220 
	C222.630264,468.296661 219.209534,471.536102 215.130066,474.901367 
	C214.324280,475.380615 214.177246,475.734009 214.030212,476.087372 
	C214.030197,476.087372 214.009476,476.013580 213.708359,475.847290 
	C211.621658,477.480225 209.836075,479.279419 208.050491,481.078613 
	C208.050491,481.078613 208.002991,481.006805 207.710861,480.832336 
	C205.626495,482.466003 203.834244,484.274078 202.042023,486.082153 
	C202.042023,486.082184 202.008987,486.010010 201.702332,485.854675 
	C199.220139,486.930420 197.044586,488.161438 194.936615,488.903198 
	C195.019882,446.879883 195.038940,405.345825 195.035477,363.811768 
	C195.035355,362.496948 194.803177,361.182098 194.722275,359.410217 
	C194.611053,353.271454 194.456741,347.589752 194.456543,341.469055 
	C194.482498,329.366394 194.354324,317.702728 194.405884,305.709045 
	C194.475174,304.669128 194.364746,303.959137 194.424072,302.794403 
	C194.534882,290.678497 194.475937,279.017365 194.565536,266.886505 
	C194.683548,254.627457 194.653015,242.838120 194.753601,230.632111 
	C194.921783,228.469391 194.958893,226.723358 194.995987,224.977310 
	C195.016266,224.805313 195.036530,224.633331 195.389420,224.202286 
	C198.468079,220.935806 201.214142,217.928406 203.960175,214.920990 
	C203.960175,214.920990 203.989212,214.989548 204.297272,215.105530 
	C207.723907,211.787888 210.842468,208.354248 213.961029,204.920624 
	C213.961044,204.920624 213.989105,204.989273 214.297089,205.105438 
	C218.053558,201.455887 221.502045,197.690186 224.950562,193.924500 
	C224.950562,193.924500 224.988113,193.991119 225.318542,194.081482 
	C225.753189,193.753464 225.857376,193.335114 225.961578,192.916763 
	C225.961594,192.916763 225.993866,192.991455 226.281128,193.176208 
	C229.022949,190.552155 231.477509,187.743362 233.932068,184.934570 
	C233.932083,184.934586 233.997864,184.996567 234.325851,185.125946 
	C234.756760,184.808960 234.859680,184.362610 234.962601,183.916260 
	C234.962601,183.916260 234.986511,183.986420 235.317947,184.089615 
	C235.753677,183.767349 235.857986,183.341888 235.962280,182.916428 
	C235.962296,182.916428 235.986435,182.986496 236.330063,183.091400 
	C236.766998,182.770462 236.860321,182.344620 236.953644,181.918762 
	C236.953629,181.918762 236.996567,181.997559 237.265472,182.216003 
	C240.004730,179.598816 242.475082,176.763168 244.945419,173.927505 
	C244.945419,173.927505 244.990372,173.992981 245.312012,174.090042 
	C245.745468,173.763199 245.857285,173.339279 245.969086,172.915359 
	C245.969086,172.915359 245.985413,172.985428 246.312866,173.067566 
	C246.748047,172.738449 246.855743,172.327194 246.963440,171.915924 
	C246.963440,171.915924 246.992416,171.989578 247.287018,172.161331 
	C249.699005,169.866531 251.816376,167.399979 253.933746,164.933426 
	C253.933746,164.933426 253.996567,164.996201 254.335464,165.122040 
	C254.767792,164.804596 254.861221,164.361298 254.954651,163.918015 
	C254.954651,163.918015 254.989532,163.989395 255.319763,164.119232 
	C255.754562,163.804642 255.859146,163.360245 255.963745,162.915833 
	C255.963745,162.915833 255.986008,162.985977 256.314819,163.083374 
	C256.750336,162.759155 256.857025,162.337540 256.963715,161.915924 
	C256.963715,161.915924 256.985992,161.986038 257.327789,162.085876 
	C257.764557,161.763275 257.859497,161.340820 257.954468,160.918381 
	C257.954468,160.918381 257.989166,160.989243 258.330505,161.115921 
	C258.766388,160.801025 258.860931,160.359451 258.955475,159.917877 
	C258.955475,159.917877 258.988983,159.988953 259.330811,160.116623 
	C259.766846,159.802170 259.861053,159.360062 259.955261,158.917953 
	C259.955261,158.917953 259.988953,158.988983 260.330475,159.115829 
	C260.766418,158.801071 260.860840,158.359467 260.955261,157.917847 
	C260.955261,157.917847 260.993439,157.990662 261.337891,158.165863 
	C264.114655,157.996552 266.546967,157.652054 269.026733,157.753098 
	C269.172150,169.809647 269.270203,181.420670 269.268402,193.370178 
	C269.198151,194.177551 269.227753,194.646439 269.206390,195.329315 
	C269.155426,195.543320 269.309387,195.955475 269.223572,196.419373 
	C269.247406,208.294479 269.357056,219.705704 269.398621,231.340851 
	C269.330536,231.564789 269.323944,232.032852 269.190033,232.484085 
	C269.121155,244.424774 269.186188,255.914230 269.200134,267.841064 
	C269.223419,280.057831 269.297791,291.837219 269.303040,303.887451 
	C269.292511,304.729614 269.351135,305.300903 269.293243,306.335388 
	C269.199280,318.495941 269.221893,330.193237 269.145935,342.356903 
	C269.024780,370.259949 268.988617,397.696655 269.018829,425.133301 
	C269.020355,426.530334 269.593018,427.926727 269.899750,429.323425 
z"/>
<path fill="#DE5E30" opacity="1.000000" stroke="none" 
	d="
M84.505875,69.111954 
	C84.505875,69.111954 84.479111,69.049011 84.830856,68.888580 
	C86.094963,68.164337 87.007317,67.600533 87.919670,67.036728 
	C93.876724,61.901501 99.833778,56.766277 106.278091,51.263748 
	C106.827049,50.572052 106.888756,50.247665 106.950470,49.923275 
	C106.950470,49.923275 106.987350,49.990082 107.322220,50.076256 
	C107.756760,49.747231 107.856438,49.332039 107.956116,48.916843 
	C107.956116,48.916843 107.995377,48.994583 108.280190,49.197159 
	C109.699524,48.237988 110.834045,47.076233 111.968575,45.914482 
	C111.968575,45.914482 111.985168,45.984600 112.312637,46.060501 
	C112.747223,45.729465 112.854340,45.322521 112.961464,44.915581 
	C112.961464,44.915581 112.992882,44.990314 113.288399,45.167747 
	C115.044388,43.868916 116.504868,42.392654 117.965347,40.916397 
	C117.965347,40.916397 117.985245,40.985710 118.312515,41.059269 
	C118.747185,40.727142 118.854584,40.321457 118.961990,39.915771 
	C118.961990,39.915771 118.985977,39.986084 119.324120,40.087517 
	C119.760475,39.765110 119.858681,39.341270 119.956886,38.917431 
	C119.956886,38.917431 119.996536,38.996777 120.251350,39.213577 
	C121.428741,38.666328 122.351318,37.902275 123.273895,37.138226 
	C132.788651,29.301521 142.303391,21.464811 152.284729,13.271687 
	C153.078979,12.713452 153.406631,12.511635 154.065048,12.289666 
	C155.457077,11.614456 156.518326,10.959396 158.354904,9.825776 
	C158.354904,12.554146 158.354889,14.485673 158.354904,16.417200 
	C158.355698,97.500336 158.352081,178.583466 158.381714,259.666595 
	C158.382492,261.797943 158.745651,263.929199 158.971497,266.383911 
	C159.031952,266.922058 159.060745,267.136780 159.025665,267.804626 
	C158.813370,268.847870 158.664978,269.438049 158.510162,270.326508 
	C158.509750,280.724030 158.515778,290.823212 158.692474,301.488678 
	C158.953583,302.438690 159.044022,302.822479 159.069153,303.569672 
	C159.060272,304.671295 159.116669,305.409454 159.017639,306.519562 
	C158.750305,307.135803 158.638428,307.380127 158.504089,307.972778 
	C158.495773,317.788666 158.573196,327.256989 158.457214,336.722961 
	C158.439392,338.175934 157.810165,340.608887 156.971390,340.845825 
	C155.508469,341.259064 153.445618,340.683319 152.033798,339.847290 
	C150.377335,338.866364 149.260742,337.017334 147.699051,335.819916 
	C146.258377,334.715302 144.538498,333.974792 142.941589,333.073914 
	C142.941589,333.073914 142.991348,333.007507 143.144165,332.701233 
	C140.844376,330.286957 138.391785,328.178955 135.939209,326.070953 
	C135.939209,326.070953 135.998779,326.000000 136.068207,325.687073 
	C135.734894,325.269165 135.332169,325.164185 134.929443,325.059204 
	C134.929443,325.059204 134.998779,325.000000 135.142731,324.698853 
	C134.553436,323.313904 133.972687,322.077698 133.064331,321.168945 
	C116.876892,304.974487 100.649681,288.819763 84.411087,272.211304 
	C84.380325,218.688721 84.358635,165.611343 84.365868,112.533951 
	C84.367836,98.059944 84.456825,83.585953 84.505875,69.111954 
z"/>
<path fill="#2477B1" opacity="1.000000" stroke="none" 
	d="
M416.896301,168.368164 
	C410.633789,175.718613 404.371277,183.069077 397.645996,190.783768 
	C396.790039,191.789291 396.396912,192.430588 396.003754,193.071869 
	C396.003754,193.071869 396.005402,193.002899 395.567383,192.964752 
	C367.419922,192.914398 339.710480,192.902206 312.001282,192.431366 
	C312.013000,180.406189 312.024506,168.839676 312.495789,157.192200 
	C348.518463,157.100769 384.081329,157.097397 419.644165,157.062912 
	C421.883789,157.060745 424.187653,156.720627 424.063599,160.075455 
	C424.063599,160.075455 424.007538,160.004776 423.681030,159.839722 
	C423.245514,160.147186 423.136475,160.619736 423.027466,161.092270 
	C423.027466,161.092270 423.016022,161.010834 422.614746,161.013184 
	C422.171417,161.695374 422.129395,162.375214 422.087341,163.055069 
	C422.087341,163.055069 422.001221,163.000000 421.633514,162.800964 
	C421.195251,163.096573 421.124725,163.591202 421.054169,164.085846 
	C421.054169,164.085846 421.009888,164.010284 420.646332,163.807800 
	C420.205139,164.099228 420.127502,164.593124 420.049866,165.087021 
	C420.049866,165.087021 420.012238,165.012543 419.660278,164.830811 
	C419.219940,165.129074 419.131592,165.609100 419.043243,166.089111 
	C419.043243,166.089111 419.015015,166.015778 418.677856,165.856598 
	C418.238068,166.162064 418.135468,166.626709 418.032867,167.091354 
	C418.032867,167.091354 418.004425,167.011414 417.778442,166.788025 
	C417.333740,167.165817 417.115021,167.766983 416.896301,168.368164 
z"/>
<path fill="#2577B2" opacity="1.000000" stroke="none" 
	d="
M391.956726,198.255798 
	C383.041473,208.942047 374.126251,219.628296 364.574768,230.599152 
	C347.602600,230.861404 331.266663,230.839050 314.658813,230.569885 
	C313.590973,228.770950 312.139221,227.232788 312.105774,225.664383 
	C311.891571,215.612747 311.988647,205.554459 312.439453,195.387451 
	C339.240051,195.302521 365.584656,195.328522 391.938782,195.468170 
	C391.948334,195.581802 391.959290,195.815170 391.942505,196.221252 
	C391.936066,197.170151 391.946381,197.712967 391.956726,198.255798 
z"/>
<path fill="#2477B1" opacity="1.000000" stroke="none" 
	d="
M335.002350,276.080750 
	C327.567596,284.980164 320.132874,293.879608 311.906952,302.925201 
	C306.753998,303.077728 302.392242,303.084076 298.021790,302.613403 
	C298.022614,290.718323 298.032074,279.300293 298.502411,267.803131 
	C312.281342,267.723999 325.599396,267.723999 339.166046,267.723999 
	C338.294617,270.369843 337.685760,272.218323 337.076965,274.066833 
	C337.076965,274.066833 336.998779,274.004242 336.675049,273.865662 
	C336.245789,274.178223 336.140289,274.629333 336.034790,275.080475 
	C336.034790,275.080475 336.015533,275.011871 335.745178,274.986664 
	C335.317322,275.334564 335.159851,275.707642 335.002350,276.080750 
z"/>
<path fill="#FCF8F3" opacity="1.000000" stroke="none" 
	d="
M159.089554,267.351532 
	C159.060745,267.136780 159.031952,266.922058 159.061615,265.917542 
	C159.139236,181.151596 159.158432,97.175430 159.177231,13.199273 
	C159.177353,12.699435 159.128265,12.195312 159.176620,11.700467 
	C159.444748,8.956643 157.718582,8.799570 155.707047,8.997184 
	C159.965164,6.639861 159.992645,6.639856 159.993546,12.103689 
	C160.001465,59.558338 159.998856,107.012985 159.999115,154.467636 
	C159.999313,191.430771 159.999176,228.393890 159.999176,265.675659 
	C170.893723,265.675659 181.702362,265.675659 193.139832,265.675659 
	C193.139832,252.250031 193.139832,238.822281 193.560394,225.664520 
	C194.194809,227.639267 194.408646,229.344040 194.622498,231.048798 
	C194.653015,242.838120 194.683548,254.627457 194.152710,266.868225 
	C189.727966,267.455017 185.864609,267.590393 181.634155,267.588196 
	C180.505524,267.551208 179.743973,267.651794 178.594727,267.609467 
	C177.124680,267.561371 176.042313,267.656250 174.605804,267.607056 
	C173.505585,267.550110 172.759491,267.637207 171.622650,267.578705 
	C170.138168,267.514374 169.044449,267.595673 167.562134,267.545593 
	C166.098679,267.510071 165.023788,267.605927 163.563843,267.560547 
	C161.815704,267.396698 160.452621,267.374115 159.089554,267.351532 
z"/>
<path fill="#E7B9A8" opacity="1.000000" stroke="none" 
	d="
M155.452576,9.058621 
	C157.718582,8.799570 159.444748,8.956643 159.176620,11.700467 
	C159.128265,12.195312 159.177353,12.699435 159.177231,13.199273 
	C159.158432,97.175430 159.139236,181.151596 159.029938,265.594116 
	C158.745651,263.929199 158.382492,261.797943 158.381714,259.666595 
	C158.352081,178.583466 158.355698,97.500336 158.354904,16.417200 
	C158.354889,14.485673 158.354904,12.554146 158.354904,9.825776 
	C156.518326,10.959396 155.457077,11.614456 154.104782,12.031712 
	C153.870636,11.449493 153.927505,11.105079 153.984390,10.760666 
	C154.388977,10.213798 154.793549,9.666928 155.452576,9.058621 
z"/>
<path fill="#1E3C59" opacity="1.000000" stroke="none" 
	d="
M278.977264,343.013092 
	C276.609741,343.018768 274.242218,343.024445 271.178894,342.946960 
	C270.335541,342.570496 270.188049,342.277191 270.282806,341.710449 
	C271.898071,341.067627 273.271088,340.698242 273.997742,340.502747 
	C273.997742,328.753510 273.997742,317.474060 274.420349,306.122345 
	C276.555725,306.115356 278.268494,306.180634 279.986694,306.683716 
	C280.366241,318.100098 280.740326,329.078644 281.114441,340.057220 
	C281.114441,340.057220 281.089691,340.102051 280.828491,340.167175 
	C280.263000,340.416595 280.103882,340.686432 280.089874,341.041870 
	C280.089874,341.041870 280.039368,341.031708 279.774109,341.184143 
	C279.331635,341.895386 279.154449,342.454254 278.977264,343.013092 
z"/>
<path fill="#FCF8F3" opacity="1.000000" stroke="none" 
	d="
M84.021820,69.093048 
	C84.456825,83.585953 84.367836,98.059944 84.365868,112.533951 
	C84.358635,165.611343 84.380325,218.688721 84.279488,272.606934 
	C84.110588,273.719452 84.053322,273.991119 83.996048,274.262817 
	C83.662956,272.908020 83.039429,271.553406 83.038445,270.198364 
	C82.990639,204.275635 82.993774,138.352875 83.018814,72.430130 
	C83.019234,71.311401 83.357269,70.192802 84.021820,69.093048 
z"/>
<path fill="#84B5D7" opacity="1.000000" stroke="none" 
	d="
M391.929230,195.354523 
	C365.584656,195.328522 339.240051,195.302521 312.030121,195.274826 
	C309.773987,195.354248 308.383209,195.435379 306.632141,195.395203 
	C305.515869,195.210419 304.759918,195.146942 304.003632,194.766373 
	C304.018860,194.028107 304.034363,193.606949 304.418213,193.138092 
	C305.526093,193.020889 306.265594,192.951355 307.418884,192.935059 
	C309.222076,192.955536 310.611542,192.922775 312.001007,192.890015 
	C339.710480,192.902206 367.419922,192.914398 395.601562,192.969620 
	C395.616425,193.628281 395.159149,194.243912 394.060791,195.003418 
	C392.922882,195.216354 392.426056,195.285431 391.929230,195.354523 
z"/>
<path fill="#234B6B" opacity="1.000000" stroke="none" 
	d="
M281.453796,340.234985 
	C280.740326,329.078644 280.366241,318.100098 280.398590,306.606567 
	C282.197479,306.140839 283.589905,306.190094 284.988281,306.653229 
	C285.026306,312.313904 284.837158,317.574951 285.174194,322.802063 
	C285.373718,325.896820 286.404297,328.938019 287.026550,332.244019 
	C286.991943,332.484711 287.025055,332.969971 287.025055,332.969971 
	C285.281067,335.450897 283.537109,337.931793 281.453796,340.234985 
z"/>
<path fill="#E9C3B5" opacity="1.000000" stroke="none" 
	d="
M194.679184,359.867279 
	C194.803177,361.182098 195.035355,362.496948 195.035477,363.811768 
	C195.038940,405.345825 195.019882,446.879883 194.782562,489.078125 
	C194.100784,489.835449 193.640686,489.928589 193.180573,490.021729 
	C193.120361,483.727234 192.939316,477.431122 193.022003,471.138519 
	C193.296906,450.220734 193.789734,429.305084 193.936874,408.386780 
	C193.992599,400.467804 193.077332,392.543884 193.074707,384.622040 
	C193.072098,376.712372 193.657715,368.802460 194.117645,360.369690 
	C194.249847,359.846741 194.679184,359.867279 194.679184,359.867279 
z"/>
<path fill="#ECF9FC" opacity="1.000000" stroke="none" 
	d="
M424.425659,159.920593 
	C424.187653,156.720627 421.883789,157.060745 419.644165,157.062912 
	C384.081329,157.097397 348.518463,157.100769 312.063080,157.114975 
	C309.140533,157.164719 307.110474,157.210739 304.614624,157.180511 
	C299.801788,157.142975 295.454803,157.181686 290.695190,157.157043 
	C289.187195,157.149796 288.091827,157.205902 286.551453,157.186523 
	C283.400299,157.146286 280.694061,157.181534 277.752991,157.143616 
	C277.518158,157.070435 277.051300,157.225708 276.615723,157.158875 
	C274.132477,157.031403 272.084747,156.970749 270.024536,156.719208 
	C270.012054,156.528305 270.002655,156.145813 270.002655,156.145813 
	C313.609436,156.096344 357.216187,156.045410 400.822968,155.998657 
	C409.120544,155.989761 417.418152,155.997375 426.545105,155.997375 
	C425.789215,157.618271 425.288483,158.692001 424.425659,159.920593 
z"/>
<path fill="#E7B9A8" opacity="1.000000" stroke="none" 
	d="
M84.098434,274.568237 
	C84.053322,273.991119 84.110588,273.719452 84.299454,273.052124 
	C100.649681,288.819763 116.876892,304.974487 133.064331,321.168945 
	C133.972687,322.077698 134.553436,323.313904 135.106949,324.728088 
	C132.686600,322.986847 130.401688,320.960846 128.212784,318.835968 
	C116.963593,307.915710 105.693939,297.015747 94.531944,286.006836 
	C90.930977,282.455200 87.635857,278.593536 84.098434,274.568237 
z"/>
<path fill="#CBDEE9" opacity="1.000000" stroke="none" 
	d="
M337.408081,273.969604 
	C337.685760,272.218323 338.294617,270.369843 339.166046,267.723999 
	C325.599396,267.723999 312.281342,267.723999 298.128479,267.726257 
	C296.538116,267.778595 295.782593,267.828644 294.615631,267.795380 
	C292.817322,267.760162 291.430450,267.808319 289.647522,267.765991 
	C288.178680,267.737000 287.105804,267.798523 285.655090,267.764832 
	C283.500824,267.718323 281.724396,267.767029 279.535278,267.686249 
	C277.402618,267.638153 275.682587,267.719574 273.592224,267.668396 
	C272.188477,267.414612 271.155121,267.293396 270.118896,266.856201 
	C270.116577,266.329559 270.117188,266.118927 270.117767,265.908264 
	C294.200165,265.908264 318.282593,265.908264 343.791565,265.908264 
	C341.387421,269.071808 339.563324,271.472107 337.408081,273.969604 
z"/>
<path fill="#ABC8D7" opacity="1.000000" stroke="none" 
	d="
M314.930756,230.816696 
	C331.266663,230.839050 347.602600,230.861404 364.395477,230.888519 
	C363.446838,231.262955 362.041718,231.952774 360.635529,231.955017 
	C332.647888,231.999969 304.660065,231.946564 276.672424,231.988846 
	C274.763977,231.991730 272.856476,232.592041 270.417603,232.778320 
	C269.756439,232.386078 269.568848,232.182983 269.323944,232.032852 
	C269.323944,232.032852 269.330536,231.564789 269.806030,231.332367 
	C272.856659,231.027725 275.431763,230.955490 278.450073,230.963013 
	C281.596161,230.985550 284.299103,230.928375 287.433594,230.947144 
	C289.911835,230.967804 291.958557,230.912491 294.444031,230.928497 
	C297.253876,230.947815 299.625000,230.895798 302.420898,230.910751 
	C304.564301,230.929703 306.282837,230.881699 308.432007,230.897995 
	C310.885315,230.913773 312.908020,230.865234 314.930756,230.816696 
z"/>
<path fill="#F2E3DB" opacity="1.000000" stroke="none" 
	d="
M270.040527,341.983887 
	C270.188049,342.277191 270.335541,342.570496 270.735840,342.916870 
	C270.656647,344.694427 270.039948,346.418182 270.035583,348.143555 
	C269.972839,373.035980 269.977081,397.928650 270.020752,422.821167 
	C270.024292,424.847961 270.432312,426.873993 270.276062,429.111908 
	C269.593018,427.926727 269.020355,426.530334 269.018829,425.133301 
	C268.988617,397.696655 269.024780,370.259949 269.343201,342.388611 
	C269.639038,341.953949 270.040527,341.983887 270.040527,341.983887 
z"/>
<path fill="#ECF9FC" opacity="1.000000" stroke="none" 
	d="
M194.722275,359.410217 
	C194.679184,359.867279 194.249847,359.846741 194.054199,359.936584 
	C193.567749,356.854950 193.096786,353.687622 193.023895,350.511200 
	C192.876038,344.068329 191.947495,342.911285 185.803055,343.019592 
	C175.615723,343.199097 165.430756,343.511292 155.393463,343.324890 
	C156.738220,342.571014 157.934280,342.259857 159.545502,341.956665 
	C161.635666,341.918945 163.310699,341.873322 165.357635,341.903015 
	C166.484177,341.933472 167.238815,341.888672 168.234116,341.914001 
	C168.640350,341.961304 168.805908,341.938477 169.375275,341.990234 
	C170.864120,341.987030 171.949127,341.909271 173.364410,341.856079 
	C174.128632,341.817322 174.562607,341.753998 175.359955,341.775330 
	C176.468521,341.837921 177.213699,341.815857 178.415131,341.895813 
	C183.228455,341.930420 187.585541,341.862976 192.238495,341.839233 
	C193.123734,341.891296 193.713089,341.899689 194.302429,341.908051 
	C194.456741,347.589752 194.611053,353.271454 194.722275,359.410217 
z"/>
<path fill="#E7B9A8" opacity="1.000000" stroke="none" 
	d="
M159.130341,341.948730 
	C157.934280,342.259857 156.738220,342.571014 155.164078,342.960693 
	C151.828400,341.037964 148.807922,339.121277 145.944489,336.993286 
	C144.816254,336.154816 144.038406,334.844849 143.021301,333.411743 
	C144.538498,333.974792 146.258377,334.715302 147.699051,335.819916 
	C149.260742,337.017334 150.377335,338.866364 152.033798,339.847290 
	C153.445618,340.683319 155.508469,341.259064 156.971390,340.845825 
	C157.810165,340.608887 158.439392,338.175934 158.457214,336.722961 
	C158.573196,327.256989 158.495773,317.788666 158.537781,308.368103 
	C158.772736,319.592957 158.951538,330.770874 159.130341,341.948730 
z"/>
<path fill="#84B5D7" opacity="1.000000" stroke="none" 
	d="
M298.030457,303.090454 
	C302.392242,303.084076 306.753998,303.077728 311.582855,303.031799 
	C311.392029,303.809174 310.734100,304.626190 309.734619,305.840271 
	C309.014923,306.536835 308.636841,306.836304 307.969299,306.816223 
	C304.456360,306.402863 301.232880,306.309082 297.634399,306.153961 
	C296.504639,306.130432 295.749878,306.168243 294.580872,306.145203 
	C292.776093,306.120209 291.385529,306.156128 289.674591,306.128204 
	C288.923737,306.002655 288.493317,305.940948 288.051758,305.583527 
	C288.038391,304.696045 288.036102,304.104279 288.369751,303.436890 
	C289.159607,303.292480 289.613525,303.223724 290.461365,303.196930 
	C291.914673,303.194946 292.974121,303.150970 294.431702,303.146729 
	C295.896698,303.154419 296.963562,303.122437 298.030457,303.090454 
z"/>
<path fill="#F2E3DB" opacity="1.000000" stroke="none" 
	d="
M269.190033,232.484085 
	C269.568848,232.182983 269.756439,232.386078 269.998993,232.818329 
	C270.182892,243.721466 270.254486,254.448425 270.221924,265.541809 
	C270.117188,266.118927 270.116577,266.329559 269.908447,266.943054 
	C269.700867,267.345856 269.251190,267.403687 269.251190,267.403687 
	C269.186188,255.914230 269.121155,244.424774 269.190033,232.484085 
z"/>
<path fill="#ECF9FC" opacity="1.000000" stroke="none" 
	d="
M308.258759,307.135773 
	C308.636841,306.836304 309.014923,306.536835 309.615356,306.135254 
	C307.623657,309.456451 305.486053,312.933014 303.157928,316.276917 
	C302.226044,317.615387 300.874420,318.661652 299.380981,319.950073 
	C299.048157,320.059265 299.032593,320.020599 298.702026,319.774902 
	C299.070770,318.404816 299.770020,317.280426 300.737213,315.978210 
	C303.423004,312.912170 305.840881,310.023956 308.258759,307.135773 
z"/>
<path fill="#F2E3DB" opacity="1.000000" stroke="none" 
	d="
M224.627243,194.020782 
	C221.502045,197.690186 218.053558,201.455887 214.262634,205.091736 
	C217.381439,201.346954 220.842697,197.732010 224.627243,194.020782 
z"/>
<path fill="#F2E3DB" opacity="1.000000" stroke="none" 
	d="
M237.419479,457.055664 
	C240.846634,453.606903 244.632263,450.141449 248.746231,446.864990 
	C245.309036,450.382324 241.543488,453.710632 237.419479,457.055664 
z"/>
<path fill="#F2E3DB" opacity="1.000000" stroke="none" 
	d="
M213.637207,205.018036 
	C210.842468,208.354248 207.723907,211.787888 204.262741,215.091629 
	C207.051224,211.679642 210.182312,208.397552 213.637207,205.018036 
z"/>
<path fill="#F2E3DB" opacity="1.000000" stroke="none" 
	d="
M203.632111,215.021591 
	C201.214142,217.928406 198.468079,220.935806 195.472748,223.956238 
	C197.916977,221.020233 200.610489,218.071198 203.632111,215.021591 
z"/>
<path fill="#F2E3DB" opacity="1.000000" stroke="none" 
	d="
M193.217224,490.379608 
	C193.640686,489.928589 194.100784,489.835449 194.714951,489.567383 
	C197.044586,488.161438 199.220139,486.930420 201.736801,485.874390 
	C200.073074,490.419312 196.377426,492.382751 193.217224,490.379608 
z"/>
<path fill="#F2E3DB" opacity="1.000000" stroke="none" 
	d="
M233.611588,185.030701 
	C231.477509,187.743362 229.022949,190.552155 226.248596,193.151764 
	C228.382904,190.337341 230.837006,187.732071 233.611588,185.030701 
z"/>
<path fill="#F2E3DB" opacity="1.000000" stroke="none" 
	d="
M244.623505,174.023682 
	C242.475082,176.763168 240.004730,179.598816 237.234589,182.183411 
	C239.390411,179.328186 241.846008,176.724014 244.623505,174.023682 
z"/>
<path fill="#F2E3DB" opacity="1.000000" stroke="none" 
	d="
M253.613953,165.028976 
	C251.816376,167.399979 249.699005,169.866531 247.253998,172.139496 
	C249.048981,169.672134 251.171585,167.398331 253.613953,165.028976 
z"/>
<path fill="#E7B9A8" opacity="1.000000" stroke="none" 
	d="
M136.012115,326.398468 
	C138.391785,328.178955 140.844376,330.286957 143.111526,332.726868 
	C140.645737,330.947845 138.365387,328.836914 136.012115,326.398468 
z"/>
<path fill="#ECF9FC" opacity="1.000000" stroke="none" 
	d="
M287.404602,332.988281 
	C287.025055,332.969971 286.991943,332.484711 287.332275,332.116516 
	C288.931274,330.212708 290.189911,328.677124 291.730896,326.964661 
	C292.685974,326.541901 293.358765,326.296051 294.032043,326.031860 
	C294.032532,326.013519 294.062958,326.055511 294.062958,326.055511 
	C291.970032,328.372528 289.877075,330.689545 287.404602,332.988281 
z"/>
<path fill="#F2E3DB" opacity="1.000000" stroke="none" 
	d="
M202.391083,486.059998 
	C203.834244,484.274078 205.626495,482.466003 207.746124,480.857056 
	C206.295715,482.716736 204.517944,484.377289 202.391083,486.059998 
z"/>
<path fill="#F2E3DB" opacity="1.000000" stroke="none" 
	d="
M208.398987,481.058411 
	C209.836075,479.279419 211.621658,477.480225 213.741211,475.867004 
	C212.299301,477.714752 210.523407,479.376495 208.398987,481.058411 
z"/>
<path fill="#F2E3DB" opacity="1.000000" stroke="none" 
	d="
M231.390701,462.057190 
	C232.840897,460.257416 234.639954,458.432892 236.754242,456.835632 
	C235.292831,458.719360 233.516190,460.375885 231.390701,462.057190 
z"/>
<path fill="#F2E3DB" opacity="1.000000" stroke="none" 
	d="
M249.412750,447.058716 
	C250.888443,445.317139 252.727737,443.555237 254.951538,441.849915 
	C253.482819,443.617188 251.629578,445.327820 249.412750,447.058716 
z"/>
<path fill="#F2E3DB" opacity="1.000000" stroke="none" 
	d="
M269.576172,156.064697 
	C270.002655,156.145813 270.012054,156.528305 269.764709,156.831207 
	C269.337982,157.191940 269.158661,157.249741 268.979309,157.307556 
	C266.546967,157.652054 264.114655,157.996552 261.303101,158.143890 
	C263.665863,157.292358 266.407776,156.637970 269.576172,156.064697 
z"/>
<path fill="#F2E3DB" opacity="1.000000" stroke="none" 
	d="
M117.619431,40.940849 
	C116.504868,42.392654 115.044388,43.868916 113.255318,45.144325 
	C114.375656,43.617416 115.824593,42.291363 117.619431,40.940849 
z"/>
<path fill="#F2E3DB" opacity="1.000000" stroke="none" 
	d="
M226.410004,465.038147 
	C227.508926,463.937775 228.966858,462.818298 230.750122,461.874756 
	C229.639984,463.040131 228.204514,464.029572 226.410004,465.038147 
z"/>
<path fill="#ECF9FC" opacity="1.000000" stroke="none" 
	d="
M298.064178,321.057922 
	C297.277527,322.320984 296.490845,323.584076 295.372925,324.954346 
	C295.041656,325.061584 295.041473,325.025482 294.711060,324.786865 
	C295.041412,323.421478 295.702209,322.294647 296.666809,321.012939 
	C297.323059,320.920471 297.675507,320.982880 298.035034,321.032074 
	C298.042175,321.018860 298.064178,321.057922 298.064178,321.057922 
z"/>
<path fill="#F2E3DB" opacity="1.000000" stroke="none" 
	d="
M111.627792,45.940926 
	C110.834045,47.076233 109.699524,48.237988 108.247894,49.167946 
	C109.049530,47.946556 110.168266,46.956963 111.627792,45.940926 
z"/>
<path fill="#E9C3B5" opacity="1.000000" stroke="none" 
	d="
M194.753586,230.632111 
	C194.408646,229.344040 194.194809,227.639267 193.981049,225.550537 
	C194.147369,225.119461 194.313614,225.072327 194.737930,225.001251 
	C194.958893,226.723358 194.921783,228.469391 194.753586,230.632111 
z"/>
<path fill="#F2E3DB" opacity="1.000000" stroke="none" 
	d="
M122.913437,37.074333 
	C122.351318,37.902275 121.428741,38.666328 120.221123,39.181107 
	C120.808380,38.291374 121.680687,37.650909 122.913437,37.074333 
z"/>
<path fill="#FCF8F3" opacity="1.000000" stroke="none" 
	d="
M153.634460,10.873859 
	C153.927505,11.105079 153.870636,11.449493 153.774017,12.051863 
	C153.406631,12.511635 153.078979,12.713452 152.465271,12.971488 
	C152.547638,12.347489 152.916092,11.667272 153.634460,10.873859 
z"/>
<path fill="#E7B9A8" opacity="1.000000" stroke="none" 
	d="
M87.586823,67.069855 
	C87.007317,67.600533 86.094963,68.164337 84.863312,68.877800 
	C85.447342,68.385963 86.350655,67.744469 87.586823,67.069855 
z"/>
<path fill="#F2E3DB" opacity="1.000000" stroke="none" 
	d="
M257.365845,439.748779 
	C257.573792,439.411499 257.994507,438.971924 258.587097,438.378784 
	C258.365540,438.698944 257.972046,439.172699 257.365845,439.748779 
z"/>
<path fill="#84B5D7" opacity="1.000000" stroke="none" 
	d="
M392.245850,198.123688 
	C391.946381,197.712967 391.936066,197.170151 392.269226,196.244736 
	C393.044556,195.916428 393.476318,195.970718 393.908112,196.024994 
	C393.450409,196.680527 392.992706,197.336060 392.245850,198.123688 
z"/>
<path fill="#84B5D7" opacity="1.000000" stroke="none" 
	d="
M396.264282,192.947205 
	C396.396912,192.430588 396.790039,191.789291 397.487915,191.092133 
	C397.370056,191.631683 396.947418,192.227112 396.264282,192.947205 
z"/>
<path fill="#767D90" opacity="1.000000" stroke="none" 
	d="
M393.984802,195.801147 
	C393.476318,195.970718 393.044556,195.916428 392.286011,195.838654 
	C391.959290,195.815170 391.948334,195.581802 391.938782,195.468155 
	C392.426056,195.285431 392.922882,195.216354 393.796661,195.132401 
	C394.173615,195.117508 394.061523,195.577301 393.984802,195.801147 
z"/>
<path fill="#ECF9FC" opacity="1.000000" stroke="none" 
	d="
M422.388306,162.949615 
	C422.129395,162.375214 422.171417,161.695374 422.655762,161.010040 
	C422.961792,161.617783 422.825531,162.230972 422.388306,162.949615 
z"/>
<path fill="#ECF9FC" opacity="1.000000" stroke="none" 
	d="
M417.154236,168.202042 
	C417.115021,167.766983 417.333740,167.165817 417.810059,166.816299 
	C417.849152,167.390625 417.630646,167.713272 417.154236,168.202042 
z"/>
<path fill="#234B6B" opacity="1.000000" stroke="none" 
	d="
M279.316559,342.929077 
	C279.154449,342.454254 279.331635,341.895386 279.783936,341.207947 
	C279.924622,341.667908 279.790253,342.256470 279.316559,342.929077 
z"/>
<path fill="#CBDEE9" opacity="1.000000" stroke="none" 
	d="
M335.257965,275.993713 
	C335.159851,275.707642 335.317322,275.334564 335.780426,274.991699 
	C335.895203,275.316895 335.704407,275.611786 335.257965,275.993713 
z"/>
<path fill="#ECF9FC" opacity="1.000000" stroke="none" 
	d="
M418.295593,167.021927 
	C418.135468,166.626709 418.238068,166.162064 418.714020,165.871918 
	C418.911011,166.348450 418.734680,166.650467 418.295593,167.021927 
z"/>
<path fill="#234B6B" opacity="1.000000" stroke="none" 
	d="
M280.424866,341.158875 
	C280.103882,340.686432 280.263000,340.416595 280.804199,340.175385 
	C280.947418,340.504272 280.853638,340.890076 280.424866,341.158875 
z"/>
<path fill="#CBDEE9" opacity="1.000000" stroke="none" 
	d="
M336.305969,275.032532 
	C336.140289,274.629333 336.245789,274.178223 336.715576,273.893768 
	C336.912292,274.368500 336.744720,274.676544 336.305969,275.032532 
z"/>
<path fill="#F2E3DB" opacity="1.000000" stroke="none" 
	d="
M112.690590,44.974815 
	C112.854340,45.322521 112.747223,45.729465 112.277306,46.053459 
	C112.082909,45.658356 112.251312,45.346203 112.690590,44.974815 
z"/>
<path fill="#F2E3DB" opacity="1.000000" stroke="none" 
	d="
M246.692169,171.974243 
	C246.855743,172.327194 246.748047,172.738449 246.277832,173.059418 
	C246.083862,172.656921 246.252396,172.344742 246.692169,171.974243 
z"/>
<path fill="#F2E3DB" opacity="1.000000" stroke="none" 
	d="
M118.691948,39.976494 
	C118.854584,40.321457 118.747185,40.727142 118.277176,41.052124 
	C118.083679,40.660015 118.252792,40.348614 118.691948,39.976494 
z"/>
<path fill="#F2E3DB" opacity="1.000000" stroke="none" 
	d="
M119.688766,38.976887 
	C119.858681,39.341270 119.760475,39.765110 119.288925,40.075653 
	C119.083931,39.653687 119.252289,39.345013 119.688766,38.976887 
z"/>
<path fill="#F2E3DB" opacity="1.000000" stroke="none" 
	d="
M245.697662,172.972473 
	C245.857285,173.339279 245.745468,173.763199 245.275208,174.075104 
	C245.086578,173.651947 245.256393,173.340775 245.697662,172.972473 
z"/>
<path fill="#F2E3DB" opacity="1.000000" stroke="none" 
	d="
M236.684891,181.976379 
	C236.860321,182.344620 236.766998,182.770462 236.295013,183.079422 
	C236.082932,182.653015 236.249527,182.343521 236.684891,181.976379 
z"/>
<path fill="#F2E3DB" opacity="1.000000" stroke="none" 
	d="
M235.692017,182.973724 
	C235.857986,183.341888 235.753677,183.767349 235.282913,184.077484 
	C235.084885,183.651779 235.253311,183.341400 235.692017,182.973724 
z"/>
<path fill="#F2E3DB" opacity="1.000000" stroke="none" 
	d="
M234.693649,183.972626 
	C234.859680,184.362610 234.756760,184.808960 234.286316,185.104095 
	C234.087433,184.644913 234.256073,184.336960 234.693649,183.972626 
z"/>
<path fill="#F2E3DB" opacity="1.000000" stroke="none" 
	d="
M214.310669,476.021667 
	C214.177246,475.734009 214.324280,475.380615 214.818329,475.008667 
	C214.973907,475.312012 214.782516,475.634003 214.310669,476.021667 
z"/>
<path fill="#F2E3DB" opacity="1.000000" stroke="none" 
	d="
M225.690826,192.974243 
	C225.857376,193.335114 225.753189,193.753464 225.282471,194.068787 
	C225.084015,193.654419 225.252060,193.343063 225.690826,192.974243 
z"/>
<path fill="#ECF9FC" opacity="1.000000" stroke="none" 
	d="
M421.311768,164.016449 
	C421.124725,163.591202 421.195251,163.096573 421.675781,162.828308 
	C421.913635,163.352142 421.741516,163.649597 421.311768,164.016449 
z"/>
<path fill="#F2E3DB" opacity="1.000000" stroke="none" 
	d="
M256.692993,161.973389 
	C256.857025,162.337540 256.750336,162.759155 256.279785,163.072144 
	C256.084717,162.652634 256.253510,162.341736 256.692993,161.973389 
z"/>
<path fill="#F2E3DB" opacity="1.000000" stroke="none" 
	d="
M257.685547,160.976410 
	C257.859497,161.340820 257.764557,161.763275 257.292725,162.074768 
	C257.082794,161.654022 257.249695,161.344238 257.685547,160.976410 
z"/>
<path fill="#ECF9FC" opacity="1.000000" stroke="none" 
	d="
M423.290741,161.023560 
	C423.136475,160.619736 423.245514,160.147186 423.720184,159.862152 
	C423.908569,160.351379 423.731293,160.653107 423.290741,161.023560 
z"/>
<path fill="#F2E3DB" opacity="1.000000" stroke="none" 
	d="
M258.687622,159.975128 
	C258.860931,160.359451 258.766388,160.801025 258.294861,161.098969 
	C258.085205,160.647690 258.252502,160.340042 258.687622,159.975128 
z"/>
<path fill="#F2E3DB" opacity="1.000000" stroke="none" 
	d="
M259.687469,158.975174 
	C259.861053,159.360062 259.766846,159.802170 259.295349,160.099762 
	C259.085236,159.647614 259.252441,159.340012 259.687469,158.975174 
z"/>
<path fill="#F2E3DB" opacity="1.000000" stroke="none" 
	d="
M260.687439,157.975052 
	C260.860840,158.359467 260.766418,158.801071 260.294952,159.098999 
	C260.085144,158.647629 260.252350,158.339935 260.687439,157.975052 
z"/>
<path fill="#F2E3DB" opacity="1.000000" stroke="none" 
	d="
M255.694458,162.972244 
	C255.859146,163.360245 255.754562,163.804642 255.284302,164.101349 
	C255.087463,163.645309 255.256317,163.336990 255.694458,162.972244 
z"/>
<path fill="#F2E3DB" opacity="1.000000" stroke="none" 
	d="
M254.686890,163.975006 
	C254.861221,164.361298 254.767792,164.804596 254.296234,165.101273 
	C254.085114,164.647110 254.252121,164.339554 254.686890,163.975006 
z"/>
<path fill="#F2E3DB" opacity="1.000000" stroke="none" 
	d="
M106.676956,49.992195 
	C106.888756,50.247665 106.827049,50.572052 106.459801,50.968346 
	C106.237320,50.713867 106.320381,50.387489 106.676956,49.992195 
z"/>
<path fill="#F2E3DB" opacity="1.000000" stroke="none" 
	d="
M107.686638,48.975742 
	C107.856438,49.332039 107.756760,49.747231 107.285919,50.064484 
	C107.082230,49.655907 107.249695,49.345272 107.686638,48.975742 
z"/>
<path fill="#ECF9FC" opacity="1.000000" stroke="none" 
	d="
M420.308533,165.018082 
	C420.127502,164.593124 420.205139,164.099228 420.684021,163.830139 
	C420.912567,164.353027 420.739899,164.651077 420.308533,165.018082 
z"/>
<path fill="#ECF9FC" opacity="1.000000" stroke="none" 
	d="
M299.065094,320.071411 
	C298.911743,320.371368 298.741425,320.659149 298.317627,321.002441 
	C298.064178,321.057922 298.042175,321.018860 297.892090,320.641846 
	C298.172211,320.183441 298.602386,320.102020 299.032593,320.020599 
	C299.032593,320.020599 299.048157,320.059265 299.065094,320.071411 
z"/>
<path fill="#ECF9FC" opacity="1.000000" stroke="none" 
	d="
M419.303558,166.019836 
	C419.131592,165.609100 419.219940,165.129074 419.697235,164.850143 
	C419.912079,165.350998 419.737976,165.650772 419.303558,166.019836 
z"/>
<path fill="#E7B9A8" opacity="1.000000" stroke="none" 
	d="
M134.963593,325.334717 
	C135.332169,325.164185 135.734894,325.269165 136.039551,325.722595 
	C135.626892,325.917480 135.312302,325.763855 134.963593,325.334717 
z"/>
<path fill="#ECF9FC" opacity="1.000000" stroke="none" 
	d="
M295.058441,325.069641 
	C294.907318,325.367096 294.739380,325.656525 294.317200,326.000732 
	C294.062958,326.055511 294.032532,326.013519 293.874451,325.641418 
	C294.158051,325.188049 294.599762,325.106750 295.041473,325.025482 
	C295.041473,325.025482 295.041656,325.061584 295.058441,325.069641 
z"/>
<path fill="#256FA3" opacity="1.000000" stroke="none" 
	d="
M182.001236,267.725800 
	C185.864609,267.590393 189.727966,267.455017 194.004166,267.337952 
	C194.475937,279.017365 194.534882,290.678497 194.025330,302.770386 
	C189.659607,303.162079 185.862381,303.123016 181.901978,302.727417 
	C181.552979,301.910156 181.196365,301.445679 181.206299,300.989227 
	C181.447601,289.900909 181.727921,278.813416 182.001236,267.725800 
z"/>
<path fill="#256FA3" opacity="1.000000" stroke="none" 
	d="
M194.456543,341.469055 
	C193.713089,341.899689 193.123734,341.891296 191.915955,341.614685 
	C188.189270,341.242584 185.080994,341.138733 181.982910,340.562805 
	C181.995468,328.804443 181.997849,317.518158 182.454773,306.168335 
	C186.681595,306.082916 190.453888,306.060974 194.226166,306.039032 
	C194.354324,317.702728 194.482498,329.366394 194.456543,341.469055 
z"/>
<path fill="#1F2F46" opacity="1.000000" stroke="none" 
	d="
M278.006897,230.883270 
	C275.431763,230.955490 272.856659,231.027725 269.874115,231.108429 
	C269.357056,219.705704 269.247406,208.294479 269.347534,196.356964 
	C269.720154,195.738281 269.852936,195.613800 270.367859,195.398926 
	C272.168060,195.265381 273.555939,195.190155 275.348328,195.147995 
	C276.817413,195.306046 277.882050,195.431015 278.956848,195.938690 
	C278.644684,198.932892 278.077911,201.541275 278.044464,204.156479 
	C277.930542,213.064117 278.004608,221.974152 278.006897,230.883270 
z"/>
<path fill="#1F2F46" opacity="1.000000" stroke="none" 
	d="
M269.026733,157.753098 
	C269.158661,157.249741 269.337982,157.191940 269.777191,157.022125 
	C272.084747,156.970749 274.132477,157.031403 276.723358,157.341766 
	C277.471161,157.798645 277.713715,157.941284 277.995728,158.486847 
	C277.996826,170.271393 277.996460,181.588516 277.633789,192.969330 
	C276.538788,193.090256 275.806122,193.147476 274.666870,193.122314 
	C272.629608,193.037170 270.998932,193.034424 269.368225,193.031677 
	C269.270203,181.420670 269.172150,169.809647 269.026733,157.753098 
z"/>
<path fill="#253145" opacity="1.000000" stroke="none" 
	d="
M269.200134,267.841064 
	C269.251190,267.403687 269.700867,267.345856 269.911316,267.259033 
	C271.155121,267.293396 272.188477,267.414612 273.603790,268.082703 
	C274.002533,280.145599 274.019287,291.661560 273.645447,303.243469 
	C271.960632,303.411804 270.666382,303.514191 269.372162,303.616577 
	C269.297791,291.837219 269.223419,280.057831 269.200134,267.841064 
z"/>
<path fill="#253145" opacity="1.000000" stroke="none" 
	d="
M270.282806,341.710449 
	C270.040527,341.983887 269.639038,341.953949 269.441772,341.922241 
	C269.221893,330.193237 269.199280,318.495941 269.471863,306.396179 
	C269.767059,305.993744 270.111084,306.156342 270.180634,306.294983 
	C270.250183,306.433655 270.665100,306.497711 270.665100,306.497711 
	C270.665100,306.497711 270.964752,306.159424 271.341980,306.100311 
	C272.478699,306.092346 273.238220,306.143494 273.997742,306.194641 
	C273.997742,317.474060 273.997742,328.753510 273.997742,340.502747 
	C273.271088,340.698242 271.898071,341.067627 270.282806,341.710449 
z"/>
<path fill="#84B5D7" opacity="1.000000" stroke="none" 
	d="
M194.405884,305.709045 
	C190.453888,306.060974 186.681595,306.082916 182.020599,306.097839 
	C179.095200,306.117157 177.058472,306.143463 174.655273,306.109222 
	C173.548782,306.018555 172.808777,305.988403 172.032440,305.648712 
	C172.051529,304.719879 172.106964,304.100555 172.520691,303.436005 
	C173.595932,303.308472 174.312881,303.226166 175.427124,303.191223 
	C176.892227,303.183105 177.960037,303.127625 179.404877,303.123413 
	C180.542984,303.144409 181.304062,303.114166 182.065140,303.083923 
	C185.862381,303.123016 189.659607,303.162079 193.855591,303.225159 
	C194.364746,303.959137 194.475174,304.669128 194.405884,305.709045 
z"/>
<path fill="#87A0B7" opacity="1.000000" stroke="none" 
	d="
M274.420349,306.122375 
	C273.238220,306.143494 272.478699,306.092346 271.128845,306.047913 
	C270.538544,306.054626 270.111084,306.156342 270.111084,306.156342 
	C270.111084,306.156342 269.767059,305.993744 269.588440,305.932953 
	C269.351135,305.300903 269.292511,304.729614 269.303040,303.887451 
	C270.666382,303.514191 271.960632,303.411804 274.078552,303.295166 
	C276.943665,303.219879 278.985077,303.158875 281.439270,303.152740 
	C283.239563,303.162994 284.627106,303.118378 286.355103,303.131927 
	C287.141632,303.297607 287.587738,303.405060 288.033813,303.512512 
	C288.036102,304.104279 288.038391,304.696045 287.667908,305.649231 
	C286.524200,306.086884 285.753265,306.163116 284.982330,306.239319 
	C283.589905,306.190094 282.197479,306.140839 280.393158,306.168762 
	C278.268494,306.180634 276.555725,306.115356 274.420349,306.122375 
z"/>
<path fill="#767D90" opacity="1.000000" stroke="none" 
	d="
M269.268402,193.370178 
	C270.998932,193.034424 272.629608,193.037170 274.641632,193.439804 
	C274.996582,194.264771 274.970215,194.689850 274.943848,195.114929 
	C273.555939,195.190155 272.168060,195.265381 270.206848,195.285400 
	C269.633514,195.230209 269.257355,195.115311 269.257355,195.115311 
	C269.227753,194.646439 269.198151,194.177551 269.268402,193.370178 
z"/>
<path fill="#234B6B" opacity="1.000000" stroke="none" 
	d="
M269.206390,195.329315 
	C269.257355,195.115311 269.633514,195.230209 269.794556,195.343719 
	C269.852936,195.613800 269.720154,195.738281 269.433350,195.893066 
	C269.309387,195.955475 269.155426,195.543320 269.206390,195.329315 
z"/>
<path fill="#1F2F46" opacity="1.000000" stroke="none" 
	d="
M159.545486,341.956665 
	C158.951538,330.770874 158.772736,319.592957 158.560242,308.019745 
	C158.638428,307.380127 158.750305,307.135803 159.333374,306.680664 
	C161.201355,306.661835 162.598129,306.853790 163.996689,307.510620 
	C164.327545,319.259521 164.656647,330.543610 164.985748,341.827698 
	C163.310699,341.873322 161.635666,341.918945 159.545486,341.956665 
z"/>
<path fill="#1F2F46" opacity="1.000000" stroke="none" 
	d="
M159.025665,267.804626 
	C160.452621,267.374115 161.815704,267.396698 163.578308,267.982300 
	C163.650131,280.035065 163.322433,291.524780 162.608673,303.054382 
	C161.193237,303.131592 160.163849,303.168915 159.134445,303.206238 
	C159.044022,302.822479 158.953583,302.438690 158.726959,301.136108 
	C158.566040,290.154266 158.541321,280.091248 158.516602,270.028198 
	C158.664978,269.438049 158.813370,268.847870 159.025665,267.804626 
z"/>
<path fill="#767D90" opacity="1.000000" stroke="none" 
	d="
M159.069153,303.569672 
	C160.163849,303.168915 161.193237,303.131592 163.024063,303.095642 
	C165.214493,303.061218 166.603485,303.025452 168.367615,303.025238 
	C169.494965,303.038300 170.247177,303.015747 171.301361,303.088470 
	C171.789673,303.282898 171.976028,303.382080 172.162399,303.481232 
	C172.106964,304.100555 172.051529,304.719879 171.761124,305.736206 
	C171.345932,306.191620 171.165695,306.249969 170.606659,306.244110 
	C169.463974,306.226135 168.700119,306.272400 167.581406,306.266846 
	C166.149353,306.491943 165.072144,306.768860 163.994919,307.045776 
	C162.598129,306.853790 161.201355,306.661835 159.488831,306.308777 
	C159.116669,305.409454 159.060272,304.671295 159.069153,303.569672 
z"/>
<path fill="#E7B9A8" opacity="1.000000" stroke="none" 
	d="
M158.510162,270.326508 
	C158.541321,280.091248 158.566040,290.154266 158.556274,300.569885 
	C158.515778,290.823212 158.509750,280.724030 158.510162,270.326508 
z"/>
<path fill="#266C9E" opacity="1.000000" stroke="none" 
	d="
M305.080444,157.256760 
	C307.110474,157.210739 309.140533,157.164719 311.603271,157.195923 
	C312.024506,168.839676 312.013000,180.406189 312.001282,192.431366 
	C310.611542,192.922775 309.222076,192.955536 307.417175,192.476868 
	C307.001129,182.530930 307.115875,173.093948 306.912689,163.663818 
	C306.866394,161.515961 305.720306,159.391815 305.080444,157.256760 
z"/>
<path fill="#266C9E" opacity="1.000000" stroke="none" 
	d="
M314.658813,230.569885 
	C312.908020,230.865234 310.885315,230.913773 308.417175,230.487854 
	C307.647888,227.254456 307.083557,224.498917 307.044647,221.735977 
	C306.921539,212.997635 306.994965,204.256546 306.992432,195.516510 
	C308.383209,195.435379 309.773987,195.354248 311.574097,195.385742 
	C311.988647,205.554459 311.891571,215.612747 312.105774,225.664383 
	C312.139221,227.232788 313.590973,228.770950 314.658813,230.569885 
z"/>
<path fill="#266C9E" opacity="1.000000" stroke="none" 
	d="
M298.021790,302.613403 
	C296.963562,303.122437 295.896698,303.154419 294.421875,302.667603 
	C294.351624,290.725464 294.689331,279.302094 295.027039,267.878723 
	C295.782593,267.828644 296.538116,267.778595 297.667603,267.805420 
	C298.032074,279.300293 298.022614,290.718323 298.021790,302.613403 
z"/>
<path fill="#1E3C59" opacity="1.000000" stroke="none" 
	d="
M167.992493,302.989655 
	C166.603485,303.025452 165.214493,303.061218 163.410095,303.055756 
	C163.322433,291.524780 163.650131,280.035065 163.963379,268.123596 
	C165.023788,267.605927 166.098679,267.510071 167.578522,267.968567 
	C167.986481,280.011841 167.989487,291.500732 167.992493,302.989655 
z"/>
<path fill="#234F73" opacity="1.000000" stroke="none" 
	d="
M172.520691,303.436005 
	C171.976028,303.382080 171.789673,303.282898 171.303040,302.620483 
	C171.339645,290.612946 171.676529,279.168640 172.013412,267.724335 
	C172.759491,267.637207 173.505585,267.550110 174.618103,268.024414 
	C174.999634,280.105194 175.014725,291.624512 175.029816,303.143860 
	C174.312881,303.226166 173.595932,303.308472 172.520691,303.436005 
z"/>
<path fill="#276490" opacity="1.000000" stroke="none" 
	d="
M181.901978,302.727417 
	C181.304062,303.114166 180.542984,303.144409 179.382492,302.694061 
	C178.982864,290.726440 178.982635,279.239441 178.982422,267.752411 
	C179.743973,267.651794 180.505524,267.551208 181.634155,267.588196 
	C181.727921,278.813416 181.447601,289.900909 181.206299,300.989227 
	C181.196365,301.445679 181.552979,301.910156 181.901978,302.727417 
z"/>
<path fill="#22567D" opacity="1.000000" stroke="none" 
	d="
M178.594727,267.609467 
	C178.982635,279.239441 178.982864,290.726440 179.005463,302.642822 
	C177.960037,303.127625 176.892227,303.183105 175.427124,303.191223 
	C175.014725,291.624512 174.999634,280.105194 174.972260,268.168457 
	C176.042313,267.656250 177.124680,267.561371 178.594727,267.609467 
z"/>
<path fill="#234B6B" opacity="1.000000" stroke="none" 
	d="
M171.622650,267.578705 
	C171.676529,279.168640 171.339645,290.612946 171.001068,302.525208 
	C170.247177,303.015747 169.494965,303.038300 168.367615,303.025238 
	C167.989487,291.500732 167.986481,280.011841 167.967102,268.099945 
	C169.044449,267.595673 170.138168,267.514374 171.622650,267.578705 
z"/>
<path fill="#276490" opacity="1.000000" stroke="none" 
	d="
M304.614624,157.180511 
	C305.720306,159.391815 306.866394,161.515961 306.912689,163.663818 
	C307.115875,173.093948 307.001129,182.530930 307.003418,192.423615 
	C306.265594,192.951355 305.526093,193.020889 304.035706,193.070251 
	C302.513458,192.981781 301.742096,192.913467 300.981781,192.390350 
	C300.996552,182.911133 301.021790,173.886658 300.996979,164.862335 
	C300.977966,157.957489 302.243439,157.923279 293.699646,158.002808 
	C292.624084,157.735458 291.865936,157.477921 291.107819,157.220383 
	C295.454803,157.181686 299.801788,157.142975 304.614624,157.180511 
z"/>
<path fill="#276490" opacity="1.000000" stroke="none" 
	d="
M306.632141,195.395203 
	C306.994965,204.256546 306.921539,212.997635 307.044647,221.735977 
	C307.083557,224.498917 307.647888,227.254456 307.986572,230.423523 
	C306.282837,230.881699 304.564301,230.929703 302.421753,230.454468 
	C301.997314,227.119400 302.001465,224.307541 301.995483,221.495728 
	C301.977142,212.863510 301.954895,204.231277 302.268341,195.475006 
	C303.069641,195.261780 303.536804,195.172623 304.003937,195.083466 
	C304.759918,195.146942 305.515869,195.210419 306.632141,195.395203 
z"/>
<path fill="#87A0B7" opacity="1.000000" stroke="none" 
	d="
M304.003632,194.766388 
	C303.536804,195.172623 303.069641,195.261780 301.838074,195.348145 
	C298.707397,195.419189 296.341125,195.493042 293.541870,195.443726 
	C290.715393,195.405365 288.321930,195.490189 285.505798,195.462128 
	C283.037689,195.418167 280.992188,195.487091 278.946686,195.556000 
	C277.882050,195.431015 276.817413,195.306046 275.348297,195.147995 
	C274.970215,194.689850 274.996582,194.264771 275.048218,193.522186 
	C275.806122,193.147476 276.538788,193.090256 278.079041,193.039886 
	C281.585999,192.991577 284.285370,192.936401 287.418884,192.946228 
	C289.895721,192.960220 291.938446,192.909210 294.415833,192.918777 
	C296.890533,192.934616 298.930634,192.889877 300.970703,192.845154 
	C301.742096,192.913467 302.513458,192.981781 303.667358,193.117935 
	C304.034363,193.606949 304.018860,194.028107 304.003632,194.766388 
z"/>
<path fill="#22567D" opacity="1.000000" stroke="none" 
	d="
M284.988281,306.653259 
	C285.753265,306.163116 286.524200,306.086884 287.679016,305.944946 
	C288.493317,305.940948 288.923737,306.002655 289.689880,306.534790 
	C290.349030,312.086151 290.661377,317.167816 291.002441,322.247559 
	C291.112183,323.881500 291.297699,325.510345 291.448547,327.141541 
	C290.189911,328.677124 288.931274,330.212708 287.366913,331.875793 
	C286.404297,328.938019 285.373718,325.896820 285.174194,322.802063 
	C284.837158,317.574951 285.026306,312.313904 284.988281,306.653259 
z"/>
<path fill="#1E3C59" opacity="1.000000" stroke="none" 
	d="
M286.984772,192.881241 
	C284.285370,192.936401 281.585999,192.991577 278.441345,192.976181 
	C277.996460,181.588516 277.996826,170.271393 277.998962,158.286041 
	C278.000732,157.617813 277.987854,157.216782 277.987854,157.216782 
	C280.694061,157.181534 283.400299,157.146286 286.547241,157.618958 
	C286.986908,169.711670 286.985840,181.296463 286.984772,192.881241 
z"/>
<path fill="#234B6B" opacity="1.000000" stroke="none" 
	d="
M287.418884,192.946228 
	C286.985840,181.296463 286.986908,169.711670 286.992188,157.694458 
	C288.091827,157.205902 289.187195,157.149796 290.695190,157.157043 
	C291.865936,157.477921 292.624084,157.735458 293.693359,158.470032 
	C293.996765,170.250793 293.988953,181.554504 293.981171,192.858200 
	C291.938446,192.909210 289.895721,192.960220 287.418884,192.946228 
z"/>
<path fill="#234B6B" opacity="1.000000" stroke="none" 
	d="
M277.752991,157.143616 
	C277.987854,157.216782 278.000732,157.617813 277.997498,157.818604 
	C277.713715,157.941284 277.471161,157.798645 277.158936,157.408600 
	C277.051300,157.225708 277.518158,157.070435 277.752991,157.143616 
z"/>
<path fill="#1E3C59" opacity="1.000000" stroke="none" 
	d="
M281.026520,303.097870 
	C278.985077,303.158875 276.943665,303.219879 274.469147,303.229218 
	C274.019287,291.661560 274.002533,280.145599 273.974182,268.215332 
	C275.682587,267.719574 277.402618,267.638153 279.553406,268.096466 
	C280.331604,280.123413 280.679077,291.610657 281.026520,303.097870 
z"/>
<path fill="#234B6B" opacity="1.000000" stroke="none" 
	d="
M281.439270,303.152740 
	C280.679077,291.610657 280.331604,280.123413 279.966064,268.225983 
	C281.724396,267.767029 283.500824,267.718323 285.644287,268.244354 
	C286.012421,280.237305 286.013550,291.655548 286.014648,303.073730 
	C284.627106,303.118378 283.239563,303.162994 281.439270,303.152740 
z"/>
<path fill="#22567D" opacity="1.000000" stroke="none" 
	d="
M286.355103,303.131958 
	C286.013550,291.655548 286.012421,280.237305 286.022125,268.339600 
	C287.105804,267.798523 288.178680,267.737000 289.635254,268.217255 
	C290.035156,280.224335 290.051300,291.689667 290.067474,303.154968 
	C289.613525,303.223724 289.159607,303.292480 288.369751,303.436890 
	C287.587738,303.405060 287.141632,303.297607 286.355103,303.131958 
z"/>
<path fill="#276490" opacity="1.000000" stroke="none" 
	d="
M290.461365,303.196930 
	C290.051300,291.689667 290.035156,280.224335 290.031281,268.307739 
	C291.430450,267.808319 292.817322,267.760162 294.615631,267.795380 
	C294.689331,279.302094 294.351624,290.725464 294.023743,302.627930 
	C292.974121,303.150970 291.914673,303.194946 290.461365,303.196930 
z"/>
<path fill="#1E3C59" opacity="1.000000" stroke="none" 
	d="
M278.956848,195.938690 
	C280.992188,195.487091 283.037689,195.418167 285.543884,195.810425 
	C286.228516,197.705780 286.625610,199.137207 286.648529,200.574600 
	C286.809601,210.672775 286.893463,220.772186 287.002045,230.871201 
	C284.299103,230.928375 281.596161,230.985550 278.450073,230.963013 
	C278.004608,221.974152 277.930542,213.064117 278.044464,204.156479 
	C278.077911,201.541275 278.644684,198.932892 278.956848,195.938690 
z"/>
<path fill="#22567D" opacity="1.000000" stroke="none" 
	d="
M293.974854,195.566895 
	C296.341125,195.493042 298.707397,195.419189 301.503906,195.472198 
	C301.954895,204.231277 301.977142,212.863510 301.995483,221.495728 
	C302.001465,224.307541 301.997314,227.119400 301.996948,230.387512 
	C299.625000,230.895798 297.253876,230.947815 294.441650,230.470032 
	C293.991943,218.482468 293.983398,207.024673 293.974854,195.566895 
z"/>
<path fill="#234B6B" opacity="1.000000" stroke="none" 
	d="
M293.541870,195.443726 
	C293.983398,207.024673 293.991943,218.482468 294.002869,230.398712 
	C291.958557,230.912491 289.911835,230.967804 287.433594,230.947144 
	C286.893463,220.772186 286.809601,210.672775 286.648529,200.574600 
	C286.625610,199.137207 286.228516,197.705780 285.966522,195.923309 
	C288.321930,195.490189 290.715393,195.405365 293.541870,195.443726 
z"/>
<path fill="#234F73" opacity="1.000000" stroke="none" 
	d="
M170.985474,306.308350 
	C171.165695,306.249969 171.345932,306.191620 171.797470,306.045715 
	C172.808777,305.988403 173.548782,306.018555 174.647446,306.315430 
	C175.006119,306.582123 175.011597,306.995483 175.007172,307.464417 
	C175.000671,319.185760 174.998611,330.438232 174.996567,341.690674 
	C174.562607,341.753998 174.128632,341.817322 173.156769,341.673950 
	C172.083847,341.348785 171.548843,341.230286 171.010941,340.636108 
	C171.000519,328.876434 170.992996,317.592377 170.985474,306.308350 
z"/>
<path fill="#1E3C59" opacity="1.000000" stroke="none" 
	d="
M163.996689,307.510620 
	C165.072144,306.768860 166.149353,306.491943 167.603821,306.708008 
	C167.985199,318.748596 167.989319,330.296204 167.993439,341.843842 
	C167.238815,341.888672 166.484177,341.933472 165.357651,341.903015 
	C164.656647,330.543610 164.327545,319.259521 163.996689,307.510620 
z"/>
<path fill="#234B6B" opacity="1.000000" stroke="none" 
	d="
M168.234116,341.914001 
	C167.989319,330.296204 167.985199,318.748596 167.958664,306.759827 
	C168.700119,306.272400 169.463974,306.226135 170.606659,306.244110 
	C170.992996,317.592377 171.000519,328.876434 170.728821,340.666748 
	C169.956879,341.420593 169.464172,341.668121 168.971466,341.915649 
	C168.805908,341.938477 168.640350,341.961304 168.234116,341.914001 
z"/>
<path fill="#22567D" opacity="1.000000" stroke="none" 
	d="
M175.359955,341.775330 
	C174.998611,330.438232 175.000671,319.185760 175.419769,307.482147 
	C176.557846,308.596039 177.871140,310.149078 177.903152,311.728149 
	C178.101364,321.502838 178.011459,331.283356 177.995697,341.244354 
	C177.974136,341.426758 177.958862,341.793793 177.958862,341.793793 
	C177.213699,341.815857 176.468521,341.837921 175.359955,341.775330 
z"/>
<path fill="#767D90" opacity="1.000000" stroke="none" 
	d="
M178.415131,341.895813 
	C177.958862,341.793793 177.974136,341.426758 178.391418,341.254211 
	C179.863373,341.066040 180.918060,341.050446 181.972733,341.034851 
	C185.080994,341.138733 188.189270,341.242584 191.620071,341.570984 
	C187.585541,341.862976 183.228455,341.930420 178.415131,341.895813 
z"/>
<path fill="#767D90" opacity="1.000000" stroke="none" 
	d="
M169.375275,341.990234 
	C169.464172,341.668121 169.956879,341.420593 170.731720,341.142426 
	C171.548843,341.230286 172.083847,341.348785 172.826508,341.649384 
	C171.949127,341.909271 170.864120,341.987030 169.375275,341.990234 
z"/>
<path fill="#276490" opacity="1.000000" stroke="none" 
	d="
M291.730896,326.964661 
	C291.297699,325.510345 291.112183,323.881500 291.002441,322.247559 
	C290.661377,317.167816 290.349030,312.086151 290.010284,306.598633 
	C291.385529,306.156128 292.776093,306.120209 294.516663,306.534180 
	C293.432159,311.915894 293.340576,316.706116 296.363007,321.167847 
	C295.702209,322.294647 295.041412,323.421478 294.711060,324.786865 
	C294.599762,325.106750 294.158051,325.188049 293.873932,325.659760 
	C293.358765,326.296051 292.685974,326.541901 291.730896,326.964661 
z"/>
<path fill="#2577B2" opacity="1.000000" stroke="none" 
	d="
M307.969299,306.816223 
	C305.840881,310.023956 303.423004,312.912170 300.369873,315.825989 
	C299.235352,314.474030 298.524506,313.131317 298.290222,311.710052 
	C297.993774,309.911926 298.085205,308.049805 298.009369,306.215302 
	C301.232880,306.309082 304.456360,306.402863 307.969299,306.816223 
z"/>
<path fill="#266C9E" opacity="1.000000" stroke="none" 
	d="
M297.634399,306.153961 
	C298.085205,308.049805 297.993774,309.911926 298.290222,311.710052 
	C298.524506,313.131317 299.235352,314.474030 300.101929,316.003845 
	C299.770020,317.280426 299.070770,318.404816 298.702026,319.774902 
	C298.602386,320.102020 298.172211,320.183441 297.884949,320.655090 
	C297.675507,320.982880 297.323059,320.920471 296.666809,321.012939 
	C293.340576,316.706116 293.432159,311.915894 294.930908,306.595032 
	C295.749878,306.168243 296.504639,306.130432 297.634399,306.153961 
z"/>
<path fill="#276490" opacity="1.000000" stroke="none" 
	d="
M181.982910,340.562805 
	C180.918060,341.050446 179.863373,341.066040 178.412979,341.071777 
	C178.011459,331.283356 178.101364,321.502838 177.903152,311.728149 
	C177.871140,310.149078 176.557846,308.596039 175.424194,307.013245 
	C175.011597,306.995483 175.006119,306.582123 175.013947,306.375916 
	C177.058472,306.143463 179.095200,306.117157 181.566071,306.161346 
	C181.997849,317.518158 181.995468,328.804443 181.982910,340.562805 
z"/>
<path fill="#1E3C59" opacity="1.000000" stroke="none" 
	d="
M270.180634,306.294983 
	C270.111084,306.156342 270.538544,306.054626 270.751648,306.107025 
	C270.964752,306.159424 270.665100,306.497711 270.665100,306.497711 
	C270.665100,306.497711 270.250183,306.433655 270.180634,306.294983 
z"/>
<path fill="#22567D" opacity="1.000000" stroke="none" 
	d="
M294.415833,192.918777 
	C293.988953,181.554504 293.996765,170.250793 294.010834,158.479874 
	C302.243439,157.923279 300.977966,157.957489 300.996979,164.862335 
	C301.021790,173.886658 300.996552,182.911133 300.981781,192.390335 
	C298.930634,192.889877 296.890533,192.934616 294.415833,192.918777 
z"/>
</svg>